<svg width="209" height="35" viewBox="0 0 209 35" fill="none" xmlns="http://www.w3.org/2000/svg">
<path d="M7.0459 24.6162L11.2939 6.67188H13.667L14.209 9.66016L9.68262 28H7.13379L7.0459 24.6162ZM4.86328 6.67188L8.37891 24.6162L8.08594 28H5.24414L0.512695 6.67188H4.86328ZM17.9443 24.543L21.416 6.67188H25.7666L21.0498 28H18.208L17.9443 24.543ZM15 6.67188L19.2773 24.6895L19.1602 28H16.6113L12.0557 9.64551L12.6416 6.67188H15ZM42.4658 24.5723V28H31.1133V24.5723H42.4658ZM32.5488 6.67188V28H28.1543V6.67188H32.5488ZM40.9863 15.3584V18.6982H31.1133V15.3584H40.9863ZM42.4512 6.67188V10.1143H31.1133V6.67188H42.4512ZM53.3789 18.6396H47.9004L47.8711 15.6221H52.4707C53.2812 15.6221 53.9453 15.5195 54.4629 15.3145C54.9805 15.0996 55.3662 14.792 55.6201 14.3916C55.8838 13.9814 56.0156 13.4834 56.0156 12.8975C56.0156 12.2334 55.8887 11.6963 55.6348 11.2861C55.3906 10.876 55.0049 10.5781 54.4775 10.3926C53.96 10.207 53.291 10.1143 52.4707 10.1143H49.4238V28H45.0293V6.67188H52.4707C53.7109 6.67188 54.8193 6.78906 55.7959 7.02344C56.7822 7.25781 57.6172 7.61426 58.3008 8.09277C58.9844 8.57129 59.5068 9.17676 59.8682 9.90918C60.2295 10.6318 60.4102 11.4912 60.4102 12.4873C60.4102 13.3662 60.21 14.1768 59.8096 14.9189C59.4189 15.6611 58.7988 16.2666 57.9492 16.7354C57.1094 17.2041 56.0107 17.4629 54.6533 17.5117L53.3789 18.6396ZM53.1885 28H46.6992L48.4131 24.5723H53.1885C53.96 24.5723 54.5898 24.4502 55.0781 24.2061C55.5664 23.9521 55.9277 23.6104 56.1621 23.1807C56.3965 22.751 56.5137 22.2578 56.5137 21.7012C56.5137 21.0762 56.4062 20.5342 56.1914 20.0752C55.9863 19.6162 55.6543 19.2646 55.1953 19.0205C54.7363 18.7666 54.1309 18.6396 53.3789 18.6396H49.1455L49.1748 15.6221H54.4482L55.459 16.8086C56.7578 16.7891 57.8027 17.0186 58.5938 17.4971C59.3945 17.9658 59.9756 18.5762 60.3369 19.3281C60.708 20.0801 60.8936 20.8857 60.8936 21.7451C60.8936 23.1123 60.5957 24.2646 60 25.2021C59.4043 26.1299 58.5303 26.8281 57.3779 27.2969C56.2354 27.7656 54.8389 28 53.1885 28ZM105.85 6.67188H110.229V20.7637C110.229 22.4043 109.878 23.7861 109.175 24.9092C108.481 26.0322 107.52 26.877 106.289 27.4434C105.068 28.0098 103.662 28.293 102.07 28.293C100.479 28.293 99.0625 28.0098 97.8223 27.4434C96.5918 26.877 95.625 26.0322 94.9219 24.9092C94.2285 23.7861 93.8818 22.4043 93.8818 20.7637V6.67188H98.2764V20.7637C98.2764 21.7207 98.4277 22.502 98.7305 23.1074C99.0332 23.7129 99.4678 24.1572 100.034 24.4404C100.61 24.7236 101.289 24.8652 102.07 24.8652C102.871 24.8652 103.55 24.7236 104.106 24.4404C104.673 24.1572 105.103 23.7129 105.396 23.1074C105.698 22.502 105.85 21.7207 105.85 20.7637V6.67188ZM118.521 6.67188V28H114.141V6.67188H118.521ZM130.693 17.1895V20.5H122.417V17.1895H130.693ZM142.778 20.3975H137.344V16.9697H142.778C143.618 16.9697 144.302 16.833 144.829 16.5596C145.356 16.2764 145.742 15.8857 145.986 15.3877C146.23 14.8896 146.353 14.3281 146.353 13.7031C146.353 13.0684 146.23 12.4775 145.986 11.9307C145.742 11.3838 145.356 10.9443 144.829 10.6123C144.302 10.2803 143.618 10.1143 142.778 10.1143H138.867V28H134.473V6.67188H142.778C144.448 6.67188 145.879 6.97461 147.07 7.58008C148.271 8.17578 149.189 9.00098 149.824 10.0557C150.459 11.1104 150.776 12.3164 150.776 13.6738C150.776 15.0508 150.459 16.2422 149.824 17.248C149.189 18.2539 148.271 19.0303 147.07 19.5771C145.879 20.124 144.448 20.3975 142.778 20.3975ZM160.049 10.3193L154.248 28H149.575L157.5 6.67188H160.474L160.049 10.3193ZM164.868 28L159.053 10.3193L158.584 6.67188H161.587L169.556 28H164.868ZM164.604 20.0605V23.5029H153.34V20.0605H164.604ZM183.633 20.9248H188.013C187.925 22.3604 187.529 23.6348 186.826 24.748C186.133 25.8613 185.161 26.7305 183.911 27.3555C182.671 27.9805 181.177 28.293 179.429 28.293C178.062 28.293 176.836 28.0586 175.752 27.5898C174.668 27.1113 173.74 26.4277 172.969 25.5391C172.207 24.6504 171.626 23.5762 171.226 22.3164C170.825 21.0566 170.625 19.6455 170.625 18.083V16.6035C170.625 15.041 170.83 13.6299 171.24 12.3701C171.66 11.1006 172.256 10.0215 173.027 9.13281C173.809 8.24414 174.741 7.56055 175.825 7.08203C176.909 6.60352 178.12 6.36426 179.458 6.36426C181.235 6.36426 182.734 6.68652 183.955 7.33105C185.186 7.97559 186.138 8.86426 186.812 9.99707C187.495 11.1299 187.905 12.4189 188.042 13.8643H183.647C183.599 13.0049 183.428 12.2773 183.135 11.6816C182.842 11.0762 182.397 10.6221 181.802 10.3193C181.216 10.0068 180.435 9.85059 179.458 9.85059C178.726 9.85059 178.086 9.9873 177.539 10.2607C176.992 10.5342 176.533 10.9492 176.162 11.5059C175.791 12.0625 175.513 12.7656 175.327 13.6152C175.151 14.4551 175.063 15.4414 175.063 16.5742V18.083C175.063 19.1865 175.146 20.1582 175.312 20.998C175.479 21.8281 175.732 22.5312 176.074 23.1074C176.426 23.6738 176.875 24.1035 177.422 24.3965C177.979 24.6797 178.647 24.8213 179.429 24.8213C180.347 24.8213 181.104 24.6748 181.699 24.3818C182.295 24.0889 182.749 23.6543 183.062 23.0781C183.384 22.502 183.574 21.7842 183.633 20.9248ZM195.293 6.67188V28H190.898V6.67188H195.293ZM208.066 6.67188L199.614 17.2041L194.736 22.4482L193.945 18.2881L197.241 13.7764L202.676 6.67188H208.066ZM203.071 28L196.787 18.1416L200.039 15.417L208.271 28H203.071Z" fill="#9DCFC9"/>
<path d="M83.5531 12.16C83.8995 11.7751 84.4923 11.7439 84.8772 12.0903L87.049 14.045C87.9695 14.8733 88.733 15.5604 89.2573 16.1836C89.8085 16.8389 90.2004 17.543 90.2004 18.4121C90.2004 19.2812 89.8085 19.9854 89.2573 20.6406C88.733 21.2639 87.9695 21.951 87.049 22.7792L84.8772 24.734C84.4923 25.0804 83.8995 25.0491 83.5531 24.6642C83.2068 24.2794 83.238 23.6866 83.6229 23.3402L85.7434 21.4317C86.7283 20.5454 87.3923 19.9449 87.8224 19.4336C88.2353 18.9429 88.3254 18.6564 88.3254 18.4121C88.3254 18.1679 88.2353 17.8814 87.8224 17.3906C87.3923 16.8794 86.7283 16.2789 85.7434 15.3925L83.6229 13.484C83.238 13.1376 83.2068 12.5448 83.5531 12.16Z" fill="#BFC0C0"/>
<path d="M72.3773 13.484C72.7622 13.1376 72.7934 12.5448 72.447 12.16C72.1007 11.7751 71.5079 11.7439 71.123 12.0903L68.9512 14.045C68.0307 14.8733 67.2672 15.5604 66.743 16.1836C66.1917 16.8389 65.7998 17.543 65.7998 18.4121C65.7998 19.2812 66.1917 19.9854 66.743 20.6406C67.2672 21.2639 68.0307 21.951 68.9511 22.7792L71.123 24.734C71.5079 25.0804 72.1007 25.0491 72.447 24.6642C72.7934 24.2794 72.7622 23.6866 72.3773 23.3402L70.2568 21.4317C69.2719 20.5454 68.6079 19.9449 68.1778 19.4336C67.765 18.9429 67.6748 18.6564 67.6748 18.4121C67.6748 18.1679 67.765 17.8814 68.1778 17.3906C68.6079 16.8794 69.2719 16.2789 70.2568 15.3925L72.3773 13.484Z" fill="#BFC0C0"/>
<path opacity="0.5" d="M80.727 8.34419C81.2271 8.47819 81.5239 8.99227 81.3899 9.49239L76.4229 28.0296C76.2889 28.5297 75.7748 28.8264 75.2747 28.6924C74.7746 28.5584 74.4778 28.0443 74.6118 27.5442L79.5788 9.0071C79.7128 8.50698 80.2269 8.21018 80.727 8.34419Z" fill="#BFC0C0"/>
</svg>
